<mxfile host="app.diagrams.net" agent="Mozilla/5.0 (Windows NT 10.0; Win64; x64) AppleWebKit/537.36 (KHTML, like Gecko) Chrome/141.0.0.0 Safari/537.36" version="28.2.5">
  <diagram name="第 1 页" id="LzoGyVU_Icj5pl3S6hTE">
    <mxGraphModel grid="1" page="1" gridSize="10" guides="1" tooltips="1" connect="1" arrows="1" fold="1" pageScale="1" pageWidth="827" pageHeight="1169" math="0" shadow="0">
      <root>
        <mxCell id="0" />
        <mxCell id="1" parent="0" />
        <mxCell id="5rC91XU2DcGdvRMlo8Cs-18" style="edgeStyle=orthogonalEdgeStyle;rounded=0;orthogonalLoop=1;jettySize=auto;html=1;exitX=0.5;exitY=1;exitDx=0;exitDy=0;entryX=0;entryY=0.5;entryDx=0;entryDy=0;" edge="1" parent="1" source="6_2DGRlmdTLV2nJeM-7e-1" target="5rC91XU2DcGdvRMlo8Cs-11">
          <mxGeometry relative="1" as="geometry" />
        </mxCell>
        <mxCell id="6_2DGRlmdTLV2nJeM-7e-1" value="&lt;font style=&quot;font-size: 15px;&quot;&gt;OS_Sched()&lt;/font&gt;" style="rounded=1;whiteSpace=wrap;html=1;" vertex="1" parent="1">
          <mxGeometry x="250" y="460" width="120" height="60" as="geometry" />
        </mxCell>
        <mxCell id="5rC91XU2DcGdvRMlo8Cs-22" style="edgeStyle=orthogonalEdgeStyle;rounded=0;orthogonalLoop=1;jettySize=auto;html=1;exitX=0.5;exitY=1;exitDx=0;exitDy=0;entryX=0.5;entryY=0;entryDx=0;entryDy=0;" edge="1" parent="1" source="5rC91XU2DcGdvRMlo8Cs-1" target="5rC91XU2DcGdvRMlo8Cs-3">
          <mxGeometry relative="1" as="geometry" />
        </mxCell>
        <mxCell id="5rC91XU2DcGdvRMlo8Cs-1" value="" style="rounded=1;whiteSpace=wrap;html=1;" vertex="1" parent="1">
          <mxGeometry x="250" y="60" width="120" height="60" as="geometry" />
        </mxCell>
        <mxCell id="5rC91XU2DcGdvRMlo8Cs-21" style="edgeStyle=orthogonalEdgeStyle;rounded=0;orthogonalLoop=1;jettySize=auto;html=1;exitX=0.5;exitY=1;exitDx=0;exitDy=0;entryX=0.5;entryY=0;entryDx=0;entryDy=0;" edge="1" parent="1" source="5rC91XU2DcGdvRMlo8Cs-3" target="5rC91XU2DcGdvRMlo8Cs-5">
          <mxGeometry relative="1" as="geometry" />
        </mxCell>
        <mxCell id="5rC91XU2DcGdvRMlo8Cs-3" value="" style="rounded=1;whiteSpace=wrap;html=1;" vertex="1" parent="1">
          <mxGeometry x="250" y="141" width="120" height="60" as="geometry" />
        </mxCell>
        <mxCell id="5rC91XU2DcGdvRMlo8Cs-20" style="edgeStyle=orthogonalEdgeStyle;rounded=0;orthogonalLoop=1;jettySize=auto;html=1;exitX=0.5;exitY=1;exitDx=0;exitDy=0;entryX=0.5;entryY=0;entryDx=0;entryDy=0;" edge="1" parent="1" source="5rC91XU2DcGdvRMlo8Cs-5" target="5rC91XU2DcGdvRMlo8Cs-6">
          <mxGeometry relative="1" as="geometry" />
        </mxCell>
        <mxCell id="5rC91XU2DcGdvRMlo8Cs-5" value="" style="rounded=1;whiteSpace=wrap;html=1;" vertex="1" parent="1">
          <mxGeometry x="250" y="221" width="120" height="60" as="geometry" />
        </mxCell>
        <mxCell id="5rC91XU2DcGdvRMlo8Cs-15" value="" style="edgeStyle=orthogonalEdgeStyle;rounded=0;orthogonalLoop=1;jettySize=auto;html=1;dashed=1;dashPattern=8 8;" edge="1" parent="1" source="5rC91XU2DcGdvRMlo8Cs-6" target="5rC91XU2DcGdvRMlo8Cs-8">
          <mxGeometry relative="1" as="geometry" />
        </mxCell>
        <mxCell id="5rC91XU2DcGdvRMlo8Cs-16" style="edgeStyle=orthogonalEdgeStyle;rounded=0;orthogonalLoop=1;jettySize=auto;html=1;exitX=0.5;exitY=1;exitDx=0;exitDy=0;entryX=0.5;entryY=0;entryDx=0;entryDy=0;" edge="1" parent="1" source="5rC91XU2DcGdvRMlo8Cs-6" target="5rC91XU2DcGdvRMlo8Cs-7">
          <mxGeometry relative="1" as="geometry" />
        </mxCell>
        <mxCell id="5rC91XU2DcGdvRMlo8Cs-6" value="" style="rounded=1;whiteSpace=wrap;html=1;" vertex="1" parent="1">
          <mxGeometry x="250" y="300" width="120" height="60" as="geometry" />
        </mxCell>
        <mxCell id="5rC91XU2DcGdvRMlo8Cs-17" style="edgeStyle=orthogonalEdgeStyle;rounded=0;orthogonalLoop=1;jettySize=auto;html=1;exitX=0.5;exitY=1;exitDx=0;exitDy=0;entryX=0.5;entryY=0;entryDx=0;entryDy=0;" edge="1" parent="1" source="5rC91XU2DcGdvRMlo8Cs-7" target="6_2DGRlmdTLV2nJeM-7e-1">
          <mxGeometry relative="1" as="geometry" />
        </mxCell>
        <mxCell id="5rC91XU2DcGdvRMlo8Cs-7" value="&lt;font style=&quot;font-size: 14px;&quot;&gt;OSTimeDly()&lt;/font&gt;" style="rounded=1;whiteSpace=wrap;html=1;" vertex="1" parent="1">
          <mxGeometry x="250" y="380" width="120" height="60" as="geometry" />
        </mxCell>
        <mxCell id="5rC91XU2DcGdvRMlo8Cs-14" style="edgeStyle=orthogonalEdgeStyle;rounded=0;orthogonalLoop=1;jettySize=auto;html=1;exitX=0.5;exitY=1;exitDx=0;exitDy=0;entryX=0.5;entryY=0;entryDx=0;entryDy=0;" edge="1" parent="1" source="5rC91XU2DcGdvRMlo8Cs-8" target="5rC91XU2DcGdvRMlo8Cs-9">
          <mxGeometry relative="1" as="geometry" />
        </mxCell>
        <mxCell id="5rC91XU2DcGdvRMlo8Cs-8" value="" style="rounded=1;whiteSpace=wrap;html=1;" vertex="1" parent="1">
          <mxGeometry x="460" y="300" width="120" height="60" as="geometry" />
        </mxCell>
        <mxCell id="5rC91XU2DcGdvRMlo8Cs-13" style="edgeStyle=orthogonalEdgeStyle;rounded=0;orthogonalLoop=1;jettySize=auto;html=1;exitX=0.5;exitY=1;exitDx=0;exitDy=0;entryX=0.5;entryY=0;entryDx=0;entryDy=0;" edge="1" parent="1" source="5rC91XU2DcGdvRMlo8Cs-9" target="5rC91XU2DcGdvRMlo8Cs-10">
          <mxGeometry relative="1" as="geometry" />
        </mxCell>
        <mxCell id="5rC91XU2DcGdvRMlo8Cs-9" value="" style="rounded=1;whiteSpace=wrap;html=1;" vertex="1" parent="1">
          <mxGeometry x="460" y="380" width="120" height="60" as="geometry" />
        </mxCell>
        <mxCell id="5rC91XU2DcGdvRMlo8Cs-12" style="edgeStyle=orthogonalEdgeStyle;rounded=0;orthogonalLoop=1;jettySize=auto;html=1;exitX=0.5;exitY=1;exitDx=0;exitDy=0;entryX=1;entryY=0.5;entryDx=0;entryDy=0;" edge="1" parent="1" source="5rC91XU2DcGdvRMlo8Cs-10" target="5rC91XU2DcGdvRMlo8Cs-11">
          <mxGeometry relative="1" as="geometry" />
        </mxCell>
        <mxCell id="5rC91XU2DcGdvRMlo8Cs-10" value="" style="rounded=1;whiteSpace=wrap;html=1;" vertex="1" parent="1">
          <mxGeometry x="460" y="460" width="120" height="60" as="geometry" />
        </mxCell>
        <mxCell id="5rC91XU2DcGdvRMlo8Cs-19" style="edgeStyle=orthogonalEdgeStyle;rounded=0;orthogonalLoop=1;jettySize=auto;html=1;exitX=0.5;exitY=1;exitDx=0;exitDy=0;entryX=0;entryY=0.5;entryDx=0;entryDy=0;" edge="1" parent="1" source="5rC91XU2DcGdvRMlo8Cs-11" target="5rC91XU2DcGdvRMlo8Cs-6">
          <mxGeometry relative="1" as="geometry">
            <Array as="points">
              <mxPoint x="413" y="610" />
              <mxPoint x="210" y="610" />
              <mxPoint x="210" y="330" />
            </Array>
          </mxGeometry>
        </mxCell>
        <mxCell id="5rC91XU2DcGdvRMlo8Cs-11" value="" style="rounded=1;whiteSpace=wrap;html=1;" vertex="1" parent="1">
          <mxGeometry x="353" y="530" width="120" height="60" as="geometry" />
        </mxCell>
        <mxCell id="5rC91XU2DcGdvRMlo8Cs-23" value="&lt;font style=&quot;font-size: 16px;&quot;&gt;Task()&lt;/font&gt;" style="text;html=1;align=center;verticalAlign=middle;whiteSpace=wrap;rounded=0;" vertex="1" parent="1">
          <mxGeometry x="280" y="315" width="60" height="30" as="geometry" />
        </mxCell>
        <mxCell id="5rC91XU2DcGdvRMlo8Cs-25" value="&lt;font&gt;OSTaskCreateExt()&lt;/font&gt;" style="text;html=1;align=center;verticalAlign=middle;whiteSpace=wrap;rounded=0;" vertex="1" parent="1">
          <mxGeometry x="280" y="156" width="60" height="30" as="geometry" />
        </mxCell>
        <mxCell id="5rC91XU2DcGdvRMlo8Cs-26" value="&lt;font style=&quot;font-size: 16px;&quot;&gt;OSStart()&lt;/font&gt;" style="text;html=1;align=center;verticalAlign=middle;whiteSpace=wrap;rounded=0;" vertex="1" parent="1">
          <mxGeometry x="280" y="236" width="60" height="30" as="geometry" />
        </mxCell>
        <mxCell id="X4POjGcmbeTAOwpU_1jJ-1" value="&lt;font style=&quot;font-size: 14px;&quot;&gt;&lt;font style=&quot;&quot;&gt;OS_SchedNew&lt;/font&gt;&lt;span style=&quot;background-color: transparent; color: light-dark(rgb(0, 0, 0), rgb(255, 255, 255));&quot;&gt;()&lt;/span&gt;&lt;/font&gt;" style="text;html=1;align=center;verticalAlign=middle;whiteSpace=wrap;rounded=0;" vertex="1" parent="1">
          <mxGeometry x="384" y="545" width="60" height="30" as="geometry" />
        </mxCell>
        <mxCell id="X4POjGcmbeTAOwpU_1jJ-3" value="&lt;font style=&quot;font-size: 16px;&quot;&gt;OSTimeTick()&lt;/font&gt;" style="text;html=1;align=center;verticalAlign=middle;whiteSpace=wrap;rounded=0;" vertex="1" parent="1">
          <mxGeometry x="490" y="395" width="60" height="30" as="geometry" />
        </mxCell>
        <mxCell id="X4POjGcmbeTAOwpU_1jJ-4" value="&lt;font style=&quot;font-size: 17px;&quot;&gt;OSIntExit()&lt;/font&gt;" style="text;html=1;align=center;verticalAlign=middle;whiteSpace=wrap;rounded=0;" vertex="1" parent="1">
          <mxGeometry x="490" y="475" width="60" height="30" as="geometry" />
        </mxCell>
        <mxCell id="8XOs1egC_pu9wfd1EFwx-4" style="edgeStyle=orthogonalEdgeStyle;rounded=0;orthogonalLoop=1;jettySize=auto;html=1;exitX=0.5;exitY=1;exitDx=0;exitDy=0;" edge="1" parent="1">
          <mxGeometry relative="1" as="geometry">
            <mxPoint x="520" y="425" as="sourcePoint" />
            <mxPoint x="520" y="425" as="targetPoint" />
          </mxGeometry>
        </mxCell>
        <mxCell id="Am0XJBVBTuEhqSHzZMps-3" value="&lt;font style=&quot;font-size: 17px;&quot;&gt;OSIntEnter&lt;/font&gt;&lt;span style=&quot;font-size: 17px; background-color: transparent; color: light-dark(rgb(0, 0, 0), rgb(255, 255, 255));&quot;&gt;()&lt;/span&gt;" style="text;html=1;align=center;verticalAlign=middle;whiteSpace=wrap;rounded=0;" vertex="1" parent="1">
          <mxGeometry x="490" y="315" width="60" height="30" as="geometry" />
        </mxCell>
        <mxCell id="Am0XJBVBTuEhqSHzZMps-5" value="&lt;font style=&quot;font-size: 16px;&quot;&gt;OSInit()&lt;/font&gt;" style="text;html=1;align=center;verticalAlign=middle;whiteSpace=wrap;rounded=0;" vertex="1" parent="1">
          <mxGeometry x="280" y="75" width="60" height="30" as="geometry" />
        </mxCell>
      </root>
    </mxGraphModel>
  </diagram>
</mxfile>
